<svg id="flat" height="512" viewBox="0 0 512 512" width="512" xmlns="http://www.w3.org/2000/svg"><path d="m120 272v80l40 48 24 72h144l24-72 40-48v-80a136 136 0 0 0 -136-136 136 136 0 0 0 -136 136z" fill="#cba677"/><path d="m224 232a422.605 422.605 0 0 1 167.882 34.542 136 136 0 0 0 -135.882-130.542 136.046 136.046 0 0 0 -133.139 108.139 425.007 425.007 0 0 1 101.139-12.139z" fill="#aa8561"/><path d="m168 200h176v112h-176z" fill="#9e6e4d"/><path d="m224 232a424.1 424.1 0 0 1 120 17.226v-49.226h-176v35.673a427.883 427.883 0 0 1 56-3.673z" fill="#7e5138"/><path d="m178.129 454.386 5.871 17.614h144l24-72 40-48v-48.852c-43.094 79.294-121.366 136.684-213.871 151.238z" fill="#aa8561"/><circle cx="320" cy="296" fill="#ededeb" r="48"/><circle cx="320" cy="296" fill="#3098c6" r="16"/><path d="m216 432 40 8 40-8v-24a16 16 0 0 0 -16-16h-48a16 16 0 0 0 -16 16z" fill="#3f484f"/><path d="m293.859 400.027a15.982 15.982 0 0 0 -13.859-8.027h-48a16 16 0 0 0 -16 16v24l4.17.834a103.7 103.7 0 0 1 73.689-32.807z" fill="#2a3135"/><path d="m216 432v40a16 16 0 0 0 16 16h48a16 16 0 0 0 16-16v-40z" fill="#9e6e4d"/><path d="m224 480c-2.024 0-4.023-.105-6-.269a15.99 15.99 0 0 0 14 8.269h48a16 16 0 0 0 16-16v-40h-4.113a72.018 72.018 0 0 1 -67.887 48z" fill="#7e5138"/><circle cx="192" cy="296" fill="#ededeb" r="48"/><path d="m222.1 258.617a47.991 47.991 0 0 1 -76.19 50.766 48 48 0 1 0 76.19-50.766z" fill="#cececc"/><circle cx="192" cy="296" fill="#3098c6" r="16"/><path d="m350.1 258.617a47.991 47.991 0 0 1 -76.19 50.766 48 48 0 1 0 76.19-50.766z" fill="#cececc"/><path d="m384 200c0 13.255-57.308 24-128 24s-128-10.745-128-24v-104h256z" fill="#666"/><path d="m178.243 171.514a520.764 520.764 0 0 1 195.6 37.872c6.536-2.886 10.157-6.055 10.157-9.386v-104h-256v77.91q24.8-2.367 50.243-2.396z" fill="#565655"/><path d="m256 24-232 64 232 64 232-64z" fill="#3f484f"/><path d="m188.3 133.323 67.7 18.677 232-64-99.332-27.4a448.3 448.3 0 0 1 -200.368 72.723z" fill="#2a3135"/><path d="m32 256v-24a120 120 0 0 1 24-72 120 120 0 0 1 24 72v24z" fill="#96d320"/><path d="m56 160a119.95 119.95 0 0 0 -13.646 23.3 103.652 103.652 0 0 1 29.646 72.7h8v-24a120 120 0 0 0 -24-72z" fill="#85b218"/><path d="m64 152h-16v-64a8 8 0 0 1 8-8h200v16h-192z" fill="#666"/><circle cx="256" cy="88" fill="#b7b2a5" r="16"/><path d="m262.575 73.425a15.979 15.979 0 0 1 -21.15 21.15 15.993 15.993 0 1 0 21.15-21.15z" fill="#999488"/><circle cx="56" cy="160" fill="#ffdc13" r="16"/><path d="m62.575 145.425a15.979 15.979 0 0 1 -21.15 21.15 15.993 15.993 0 1 0 21.15-21.15z" fill="#e5af17"/></svg>